<svg id="Group_1452" data-name="Group 1452" xmlns="http://www.w3.org/2000/svg" width="55" height="55" viewBox="0 0 55 55">
  <g id="Group_1447" data-name="Group 1447" transform="translate(0 9.167)">
    <path id="Path_3558" data-name="Path 3558" d="M22.917,49.834A22.917,22.917,0,1,1,45.834,26.917,22.984,22.984,0,0,1,22.917,49.834Zm0-43.542A20.625,20.625,0,1,0,43.542,26.917,20.539,20.539,0,0,0,22.917,6.292Z" transform="translate(0 -4)" fill="#009daa"/>
  </g>
  <g id="Group_1448" data-name="Group 1448" transform="translate(8.021 17.188)">
    <path id="Path_3559" data-name="Path 3559" d="M18.4,37.292a14.9,14.9,0,1,1,14.9-14.9A14.866,14.866,0,0,1,18.4,37.292Zm0-27.5A12.6,12.6,0,0,0,18.4,35a12.6,12.6,0,0,0,0-25.208Z" transform="translate(-3.5 -7.5)" fill="#009daa"/>
  </g>
  <g id="Group_1449" data-name="Group 1449" transform="translate(16.042 25.208)">
    <path id="Path_3560" data-name="Path 3560" d="M13.875,24.75A6.752,6.752,0,0,1,7,17.875,6.752,6.752,0,0,1,13.875,11a6.752,6.752,0,0,1,6.875,6.875A6.752,6.752,0,0,1,13.875,24.75Zm0-11.458a4.583,4.583,0,1,0,4.583,4.583A4.6,4.6,0,0,0,13.875,13.292Z" transform="translate(-7 -11)" fill="#009daa"/>
  </g>
  <g id="Group_1453" data-name="Group 1453" transform="translate(21.656 30.902)">
    <path id="Path_3560-2" data-name="Path 3560" d="M8.182,13.364a1.182,1.182,0,1,1,1.182-1.182A1.161,1.161,0,0,1,8.182,13.364Zm0-1.97a.788.788,0,1,0,.788.788A.79.79,0,0,0,8.182,11.394Z" transform="translate(-7 -11)" fill="none" stroke="rgba(255,255,255,0)" stroke-width="2"/>
  </g>
  <g id="Group_1450" data-name="Group 1450" transform="translate(21.656 13.865)">
    <path id="Path_3561" data-name="Path 3561" d="M10.71,25.415a1.378,1.378,0,0,1-.917-.229,1.108,1.108,0,0,1,0-1.6L26.981,6.394a1.134,1.134,0,1,1,1.6,1.6L11.4,25.185c0,.229-.458.229-.688.229Z" transform="translate(-9.45 -6.05)" fill="#24346d"/>
    <circle id="Ellipse_1" data-name="Ellipse 1" cx="2" cy="2" r="2" transform="translate(-0.656 16.135)" fill="#24346d"/>
  </g>
  <g id="Group_1451" data-name="Group 1451" transform="translate(38.959)">
    <path id="Path_3562" data-name="Path 3562" d="M23.875,16.042H18.146A1.083,1.083,0,0,1,17,14.9V9.167c0-.229.229-.688.229-.917L25.25.229A2.907,2.907,0,0,1,26.625,0a1.26,1.26,0,0,1,.688,1.146V5.729H31.9a1.26,1.26,0,0,1,1.146.688,2.907,2.907,0,0,1-.229,1.375l-8.021,8.021C24.563,15.813,24.1,16.042,23.875,16.042ZM19.292,13.75h4.125l5.729-5.729H26.167a1.083,1.083,0,0,1-1.146-1.146V3.9L19.292,9.625Z" transform="translate(-17 0)" fill="#24346d"/>
  </g>
</svg>
