<svg id="Group_1439" data-name="Group 1439" xmlns="http://www.w3.org/2000/svg" width="48.556" height="55" viewBox="0 0 48.556 55">
  <g id="Group_1438" data-name="Group 1438">
    <path id="Path_3542" data-name="Path 3542" d="M63.06,9.93a.81.81,0,0,0,.81-.81V5.367a.81.81,0,1,0-1.619,0V9.121A.81.81,0,0,0,63.06,9.93Z" transform="translate(-38.782 -4.557)" fill="#24346d"/>
    <path id="Path_3543" data-name="Path 3543" d="M109.426,55.285h-3.754a.81.81,0,1,0,0,1.619h3.754a.81.81,0,1,0,0-1.619Z" transform="translate(-61.68 -31.817)" fill="#24346d"/>
    <path id="Path_3544" data-name="Path 3544" d="M16.086,55.285H12.332a.81.81,0,0,0,0,1.619h3.754a.81.81,0,1,0,0-1.619Z" transform="translate(-11.522 -31.817)" fill="#24346d"/>
    <path id="Path_3545" data-name="Path 3545" d="M95.274,19.653l-2.655,2.655a.81.81,0,1,0,1.145,1.145L96.418,20.8a.809.809,0,1,0-1.145-1.145Z" transform="translate(-54.973 -12.542)" fill="#24346d"/>
    <path id="Path_3546" data-name="Path 3546" d="M29.272,85.651l-2.655,2.655a.81.81,0,1,0,1.145,1.145l2.652-2.657A.81.81,0,1,0,29.27,85.65Z" transform="translate(-19.506 -48.006)" fill="#24346d"/>
    <path id="Path_3547" data-name="Path 3547" d="M93.789,85.678a.81.81,0,0,0-1.145,1.143L95.3,89.476a.81.81,0,1,0,1.145-1.145Z" transform="translate(-54.999 -48.033)" fill="#24346d"/>
    <path id="Path_3548" data-name="Path 3548" d="M29.3,23.484a.809.809,0,0,0,1.142-1.145l-2.655-2.655a.809.809,0,0,0-1.142,1.144Z" transform="translate(-19.538 -12.574)" fill="#24346d"/>
    <path id="Path_3549" data-name="Path 3549" d="M61.245,37.162c0-.009,0-.018,0-.027,0-.037,0-.073,0-.109a17.039,17.039,0,1,0-34.078.133v.006a17.071,17.071,0,0,0,5.621,12.642,8.891,8.891,0,0,1,2.92,6.589V62.41a2.195,2.195,0,0,0,1.606,2.106l1.041,2.837a.81.81,0,0,0,.76.531H49.3a.81.81,0,0,0,.76-.531L51.1,64.517a2.195,2.195,0,0,0,1.606-2.106V56.4a9.03,9.03,0,0,1,2.977-6.642A17.065,17.065,0,0,0,61.241,37.2c0-.013,0-.026,0-.039Zm-1.641-.81h-4.85a.809.809,0,0,0-.81.81v1.3a1.625,1.625,0,1,1-3.25,0v-1.3a.809.809,0,0,0-.81-.81H45.015V32.291h.495a3.244,3.244,0,1,0,0-6.488h-.495v-4.04A15.3,15.3,0,0,1,59.6,36.352ZM43.4,21.767v4.846a.81.81,0,0,0,.81.81h1.3a1.625,1.625,0,0,1,0,3.25h-1.3a.81.81,0,0,0-.81.81v4.871H39.335v-.495a3.244,3.244,0,1,0-6.489,0v.495H28.808A15.487,15.487,0,0,1,43.4,21.767ZM33.872,48.605a15.452,15.452,0,0,1-5.064-10.634h4.851a.81.81,0,0,0,.81-.81v-1.3a1.625,1.625,0,1,1,3.25,0v1.3a.81.81,0,0,0,.81.81H43.4v4.061H42.9a3.244,3.244,0,1,0,0,6.488H43.4v7.5H37.315A10.511,10.511,0,0,0,33.872,48.605Zm17.215,10.9H37.325V57.643H51.087Zm-.578,3.483H37.9a.579.579,0,0,1-.578-.578V61.125H51.087v1.285A.579.579,0,0,1,50.508,62.989Zm-1.775,3.276H39.678l-.607-1.657h10.27Zm5.858-17.706a10.668,10.668,0,0,0-3.5,7.465H45.015V47.711a.81.81,0,0,0-.81-.81H42.9a1.625,1.625,0,0,1,0-3.25h1.3a.81.81,0,0,0,.81-.81V37.972h4.061v.495a3.244,3.244,0,1,0,6.489,0v-.495H59.6a15.449,15.449,0,0,1-5.01,10.587Z" transform="translate(-19.928 -12.884)" fill="#009daa"/>
  </g>
</svg>
