<svg id="Group_1440" data-name="Group 1440" xmlns="http://www.w3.org/2000/svg" width="54.983" height="55" viewBox="0 0 54.983 55">
  <path id="Path_3550" data-name="Path 3550" d="M220.558,332.028a1.075,1.075,0,1,0-1.519,0A1.076,1.076,0,0,0,220.558,332.028Zm0,0" transform="translate(-195.283 -294.723)" fill="#009daa"/>
  <path id="Path_3551" data-name="Path 3551" d="M188.449,11.813A11.813,11.813,0,1,0,200.262,0,11.827,11.827,0,0,0,188.449,11.813Zm21.479,0a9.666,9.666,0,1,1-9.666-9.665A9.676,9.676,0,0,1,209.928,11.813Zm0,0" transform="translate(-168.259)" fill="#24346d"/>
  <path id="Path_3552" data-name="Path 3552" d="M12.871,244.194a1.074,1.074,0,0,0,1.516.009l5.207-5.129a3.245,3.245,0,0,0,.765-3.333l1.12-1.08a3.2,3.2,0,0,1,2.236-.9H37.991a9.615,9.615,0,0,0,6.742-2.739c.075-.073-.567.683,9.74-11.635a4.3,4.3,0,0,0-6.537-5.575L41.6,220.321a4.316,4.316,0,0,0-3.339-1.6H26.284a13.855,13.855,0,0,0-5.378-1.074A13.286,13.286,0,0,0,8.8,224.515a3.208,3.208,0,0,0-2.872.89L.815,230.529a1.074,1.074,0,0,0,0,1.515Zm8.034-24.4a11.723,11.723,0,0,1,4.728.984,1.072,1.072,0,0,0,.431.09h12.2a2.148,2.148,0,1,1,0,4.3H29.5a1.074,1.074,0,1,0,0,2.148h8.762a4.289,4.289,0,0,0,4.258-4.857c6.13-6.3,6.995-7.187,7.032-7.231A2.148,2.148,0,1,1,52.828,218L43.2,229.516a7.478,7.478,0,0,1-5.205,2.093H23.714a5.339,5.339,0,0,0-3.728,1.506l-.913.881-8.413-8.413A11.088,11.088,0,0,1,20.905,219.8ZM7.443,226.923a1.071,1.071,0,0,1,1.33-.151c.186.113-.348-.373,9.3,9.264a1.076,1.076,0,0,1,.006,1.514l-4.439,4.373L3.09,231.289Zm0,0" transform="translate(-0.501 -189.511)" fill="#009daa"/>
  <path id="Path_3553" data-name="Path 3553" d="M268,41.063v1.258a3.222,3.222,0,0,0,1.074,6.259,1.074,1.074,0,1,1,0,2.148,1.942,1.942,0,0,1-1.394-.812,1.074,1.074,0,1,0-1.644,1.382A4.454,4.454,0,0,0,268,52.7v1.253a1.074,1.074,0,0,0,2.148,0V52.691a3.222,3.222,0,0,0-1.074-6.259,1.074,1.074,0,0,1,0-2.148,1.724,1.724,0,0,1,1.162.561,1.074,1.074,0,0,0,1.494-1.543,4.149,4.149,0,0,0-1.582-.989V41.063a1.074,1.074,0,1,0-2.148,0Zm0,0" transform="translate(-237.289 -35.693)" fill="#009daa"/>
</svg>
