<svg id="Group_1443" data-name="Group 1443" xmlns="http://www.w3.org/2000/svg" width="46.2" height="55" viewBox="0 0 46.2 55">
  <g id="Group_1446" data-name="Group 1446">
    <g id="Group_1445" data-name="Group 1445">
      <g id="Group_1444" data-name="Group 1444">
        <path id="Path_3554" data-name="Path 3554" d="M173.74,286.72c-5.368,0-9.9,2.517-9.9,5.5,0,8.941,3.331,15.886,4.721,17.277.9.9,2.792,1.423,5.179,1.423s4.272-.519,5.177-1.423c1.39-1.39,4.723-8.336,4.723-17.277C183.64,289.237,179.106,286.72,173.74,286.72Zm3.621,21.221c-.271.268-1.373.779-3.621.779s-3.353-.51-3.623-.779c-.829-.829-4.077-7.117-4.077-15.721,0-1.331,3.232-3.3,7.7-3.3s7.7,1.969,7.7,3.3C181.44,300.824,178.191,307.112,177.361,307.941Z" transform="translate(-150.64 -255.92)" fill="#009daa"/>
        <path id="Path_3555" data-name="Path 3555" d="M137.18,81.92a14.317,14.317,0,0,0-14.3,14.3,13.994,13.994,0,0,0,2.864,8.54,1.1,1.1,0,1,0,1.751-1.331,11.8,11.8,0,0,1-2.416-7.209,12.1,12.1,0,0,1,24.2,0,11.8,11.8,0,0,1-2.418,7.209,1.1,1.1,0,1,0,1.751,1.331,14,14,0,0,0,2.867-8.54A14.318,14.318,0,0,0,137.18,81.92Z" transform="translate(-114.08 -73.12)" fill="#009daa"/>
        <path id="Path_3556" data-name="Path 3556" d="M215.8,169.34a5.5,5.5,0,1,0-5.5,5.5A5.506,5.506,0,0,0,215.8,169.34Zm-8.8,0a3.3,3.3,0,1,1,3.3,3.3A3.3,3.3,0,0,1,207,169.34Z" transform="translate(-187.2 -146.24)" fill="#009daa"/>
        <path id="Path_3557" data-name="Path 3557" d="M64.06,0A23.088,23.088,0,0,0,50.477,41.767a1.1,1.1,0,0,0,1.291-1.784,20.9,20.9,0,1,1,24.581,0A1.1,1.1,0,0,0,77,41.976a1.119,1.119,0,0,0,.645-.209A23.087,23.087,0,0,0,64.06,0Z" transform="translate(-40.96)" fill="#24346d"/>
      </g>
    </g>
  </g>
</svg>
