<svg xmlns="http://www.w3.org/2000/svg" width="46.37" height="55" viewBox="0 0 46.37 55">
  <g id="Group_1459" data-name="Group 1459" transform="translate(0)">
    <g id="Group_1456" data-name="Group 1456" transform="translate(0)">
      <g id="Group_1455" data-name="Group 1455">
        <g id="Group_1454" data-name="Group 1454">
          <path id="Path_3563" data-name="Path 3563" d="M85.39,6.54,63.816.068a1.61,1.61,0,0,0-.926,0L41.316,6.54a1.611,1.611,0,0,0-1.148,1.543V31.815c0,3.087,1.25,6.246,3.714,9.391a38.4,38.4,0,0,0,7.74,7.169A69.432,69.432,0,0,0,62.695,54.86a1.611,1.611,0,0,0,1.317,0,69.433,69.433,0,0,0,11.073-6.484,38.4,38.4,0,0,0,7.739-7.169c2.464-3.145,3.714-6.3,3.714-9.391V8.084A1.611,1.611,0,0,0,85.39,6.54ZM84.316,31.815c0,5.463-5.481,11.585-10.079,14.92a65.127,65.127,0,0,1-10.883,5.874A65.127,65.127,0,0,1,52.47,46.735c-4.6-3.335-10.079-9.457-10.079-14.92V8.282L63.353,2.294,84.316,8.282Z" transform="translate(-40.168)" fill="#009daa"/>
        </g>
      </g>
    </g>
    <g id="Group_1481" data-name="Group 1481" transform="translate(12.131 18.863)">
      <g id="Group_1457" data-name="Group 1457">
        <path id="Path_3564" data-name="Path 3564" d="M13.279,25.274A1.613,1.613,0,0,1,12,24.7L6.546,18.94a1.926,1.926,0,0,1,0-2.687,1.7,1.7,0,0,1,2.548,0l4.185,4.414L24.743,8.576a1.7,1.7,0,0,1,2.548,0,1.926,1.926,0,0,1,0,2.687L14.552,24.7a1.613,1.613,0,0,1-1.274.576Z" transform="translate(-6 -8)" fill="#24346d"/>
      </g>
    </g>
  </g>
</svg>
