<svg id="Group_1464" data-name="Group 1464" xmlns="http://www.w3.org/2000/svg" width="55" height="55" viewBox="0 0 55 55">
  <g id="Group_1463" data-name="Group 1463">
    <path id="Path_3565" data-name="Path 3565" d="M46.391,30.247h9.092a2.2,2.2,0,1,0,0-1.624H46.391V24.637h5.861a.813.813,0,0,0,.812-.812v-5.35h2.42a2.2,2.2,0,1,0,0-1.624H52.252a.813.813,0,0,0-.812.812v5.35H46.391V18.9a.813.813,0,0,0-.812-.812H41.463V13.036h5.35a.813.813,0,0,0,.812-.812V8.992a2.2,2.2,0,1,0-1.624,0v2.42h-5.35a.813.813,0,0,0-.812.812v5.861H35.853V8.993a2.2,2.2,0,1,0-1.624,0v9.092H30.247V8.992a2.2,2.2,0,1,0-1.624,0v9.092H24.637V12.224a.813.813,0,0,0-.812-.812h-5.35V8.992a2.2,2.2,0,1,0-1.624,0v3.232a.813.813,0,0,0,.812.812h5.35v5.049H18.9a.813.813,0,0,0-.812.812v4.116H13.036v-5.35a.813.813,0,0,0-.812-.812H8.993a2.2,2.2,0,1,0,0,1.624h2.419v5.35a.813.813,0,0,0,.812.812h5.861v3.986H8.993a2.2,2.2,0,1,0,0,1.624h9.092v3.981H8.992a2.2,2.2,0,1,0,0,1.624h9.092v3.986H12.224a.813.813,0,0,0-.812.812V46H8.992a2.2,2.2,0,1,0,0,1.624h3.232a.813.813,0,0,0,.812-.812v-5.35h5.049v4.116a.813.813,0,0,0,.812.812h4.116V51.44h-5.35a.813.813,0,0,0-.812.812v3.232a2.2,2.2,0,1,0,1.624,0v-2.42h5.35a.813.813,0,0,0,.812-.812V46.391h3.986v9.092a2.2,2.2,0,1,0,1.624,0V46.391h3.981v9.092a2.2,2.2,0,1,0,1.624,0V46.391h3.986v5.861a.813.813,0,0,0,.812.812H46v2.42a2.2,2.2,0,1,0,1.624,0V52.252a.813.813,0,0,0-.812-.812h-5.35V46.391h4.116a.813.813,0,0,0,.812-.812V41.463H51.44v5.35a.813.813,0,0,0,.812.812h3.232a2.2,2.2,0,1,0,0-1.624h-2.42v-5.35a.813.813,0,0,0-.812-.812H46.391V35.853h9.092a2.2,2.2,0,1,0,0-1.624H46.391Zm11.137-1.392a.58.58,0,1,1-.58.58.58.58,0,0,1,.58-.58Zm0-11.772a.58.58,0,1,1-.58.58.58.58,0,0,1,.58-.58ZM46.814,6.368a.58.58,0,1,1-.58.58.58.58,0,0,1,.58-.58Zm-11.772,0a.58.58,0,1,1-.58.58.58.58,0,0,1,.58-.58Zm-5.608,0a.58.58,0,1,1-.58.58.58.58,0,0,1,.58-.58Zm-11.772,0a.58.58,0,1,1-.58.58.58.58,0,0,1,.58-.58ZM6.948,18.242a.58.58,0,1,1,.58-.58.58.58,0,0,1-.58.58Zm0,11.772a.58.58,0,1,1,.58-.58.58.58,0,0,1-.58.58Zm0,5.608a.58.58,0,1,1,.58-.58A.58.58,0,0,1,6.948,35.622Zm0,11.772a.58.58,0,1,1,.58-.58.58.58,0,0,1-.58.58ZM17.662,58.109a.58.58,0,1,1,.58-.58.58.58,0,0,1-.58.58Zm11.772,0a.58.58,0,1,1,.58-.58.58.58,0,0,1-.58.58Zm5.607,0a.58.58,0,1,1,.58-.58A.58.58,0,0,1,35.042,58.109Zm11.772,0a.58.58,0,1,1,.58-.58.58.58,0,0,1-.58.58ZM57.529,46.234a.58.58,0,1,1-.58.58.58.58,0,0,1,.58-.58Zm0-11.772a.58.58,0,1,1-.58.58.58.58,0,0,1,.58-.58ZM44.767,44.767H19.709V19.709H44.767Z" transform="translate(-4.738 -4.738)" fill="#009daa"/>
    <path id="Path_3566" data-name="Path 3566" d="M61.642,42.5H43.312a.813.813,0,0,0-.812.812v18.33a.813.813,0,0,0,.812.812h18.33a.813.813,0,0,0,.812-.812V43.312a.813.813,0,0,0-.812-.812ZM60.83,60.83H44.124V44.124H60.83Z" transform="translate(-24.977 -24.977)" fill="#24346d"/>
    <path id="Path_3567" data-name="Path 3567" d="M76.812,59.415a.813.813,0,0,0,.812-.812V54.02a.812.812,0,0,0-1.624,0V58.6a.813.813,0,0,0,.812.812Z" transform="translate(-42.931 -30.716)" fill="#24346d"/>
  </g>
</svg>
