<svg id="Group_26" data-name="Group 26" xmlns="http://www.w3.org/2000/svg" width="26" height="26" viewBox="0 0 26 26">
  <g id="Group_25" data-name="Group 25">
    <g id="Group_23" data-name="Group 23">
      <path id="Path_86" data-name="Path 86" d="M13,24.7A11.7,11.7,0,1,0,1.3,13,11.7,11.7,0,0,0,13,24.7ZM13,26A13,13,0,1,0,0,13,13,13,0,0,0,13,26Z" fill="#fff" fill-rule="evenodd"/>
    </g>
    <g id="Group_24" data-name="Group 24" transform="translate(9.1 7.374)">
      <path id="Path_87" data-name="Path 87" d="M73.61,59.38l-5.978-3.985v7.971Zm1.208-.757a.91.91,0,0,1,0,1.514l-7.071,4.714a.91.91,0,0,1-1.415-.757V54.666a.91.91,0,0,1,1.415-.757Z" transform="translate(-66.332 -53.755)" fill="#fff" fill-rule="evenodd"/>
    </g>
  </g>
</svg>
